<?xml version="1.0" encoding="utf-8"?>
<!-- Generator: Adobe Illustrator 19.1.0, SVG Export Plug-In . SVG Version: 6.00 Build 0)  -->
<!DOCTYPE svg PUBLIC "-//W3C//DTD SVG 1.1//EN" "http://www.w3.org/Graphics/SVG/1.1/DTD/svg11.dtd">
<svg version="1.1" id="Layer_1" xmlns="http://www.w3.org/2000/svg" xmlns:xlink="http://www.w3.org/1999/xlink" x="0px" y="0px"
	 width="188.7px" height="51.6px" viewBox="71.3 -17.6 188.7 51.6" enable-background="new 71.3 -17.6 188.7 51.6"
	 xml:space="preserve">
<g>
	<path fill="#CED7DA" d="M71.3,11.2c0-4.4,3.4-8.2,7.9-8.2c2.9,0,4.8,1.2,6.2,2.8l-1.5,1.6c-1.2-1.3-2.6-2.3-4.7-2.3
		c-3.2,0-5.5,2.7-5.5,6v0.1c0,3.4,2.5,6,5.7,6c2,0,3.5-1,4.7-2.3l1.5,1.4c-1.6,1.7-3.4,3-6.3,3C74.7,19.2,71.3,15.6,71.3,11.2z
		 M88,11.2C88,6.8,91.4,3,96.1,3c4.6,0,8.1,3.7,8.1,8v0.1c0,4.4-3.4,8.1-8.1,8.1S88,15.6,88,11.2z M101.8,11.2
		c0-3.4-2.5-6.1-5.8-6.1c-3.4,0-5.7,2.7-5.7,6v0.1c0,3.3,2.5,6,5.7,6C99.4,17.2,101.8,14.5,101.8,11.2z M108.3,3.4h2.3V6
		c1-1.5,2.4-2.9,5-2.9c2.5,0,4.1,1.4,5,3.1c1.1-1.7,2.8-3.1,5.5-3.1c3.6,0,5.8,2.4,5.8,6.2v9.6h-2.3V9.8c0-3-1.5-4.7-4-4.7
		c-2.3,0-4.3,1.7-4.3,4.8v8.9H119V9.7c0-2.9-1.5-4.6-4-4.6s-4.3,2-4.3,4.9v8.8h-2.3L108.3,3.4L108.3,3.4z M136.8,3.4h2.3v3.1
		c1.3-1.9,3.1-3.4,5.9-3.4c3.7,0,7.4,2.9,7.4,8v0.1c0,5.1-3.7,8.1-7.4,8.1c-2.9,0-4.7-1.6-5.9-3.3v7.8h-2.3V3.4z M150.1,11.2
		c0-3.7-2.5-6.1-5.5-6.1c-2.9,0-5.6,2.4-5.6,6v0.1c0,3.6,2.7,6,5.6,6C147.7,17.1,150.1,14.9,150.1,11.2z M157-3h2.3v21.9H157V-3z
		 M164.7-2.6h2.6v2.5h-2.6V-2.6z M164.9,3.4h2.3v15.5h-2.3V3.4z M172.5,3.4h2.3V6c1-1.5,2.4-2.9,5-2.9c2.5,0,4.1,1.4,5,3.1
		c1.1-1.7,2.8-3.1,5.5-3.1c3.6,0,5.8,2.4,5.8,6.2v9.6h-2.3V9.8c0-3-1.5-4.7-4-4.7c-2.3,0-4.3,1.7-4.3,4.8v8.9h-2.3V9.7
		c0-2.9-1.5-4.6-4-4.6s-4.3,2-4.3,4.9v8.8h-2.3L172.5,3.4L172.5,3.4z M200.1,11.2c0-4.5,3.1-8.1,7.4-8.1c4.6,0,7.2,3.7,7.2,8.2v0.8
		h-12.3c0.3,3.4,2.7,5.2,5.5,5.2c2.1,0,3.6-0.9,4.9-2.2l1.4,1.3c-1.6,1.7-3.4,2.9-6.4,2.9C203.6,19.2,200.1,16,200.1,11.2
		L200.1,11.2z M212.4,10.3c-0.2-2.8-1.9-5.3-4.9-5.3c-2.7,0-4.7,2.2-5,5.3C202.5,10.3,212.4,10.3,212.4,10.3z M218.8,3.4h2.3v2.7
		c1-1.7,2.6-3,5.3-3c3.8,0,5.9,2.5,5.9,6.2v9.6H230V9.8c0-2.9-1.6-4.7-4.3-4.7S221,7,221,10v8.9h-2.3V3.4H218.8z M238.1,14.8V5.4
		H236v-2h2.2v-4.7h2.3v4.7h4.9v2h-4.9v9.1c0,1.9,1,2.6,2.6,2.6c0.8,0,1.4-0.1,2.2-0.5v2c-0.8,0.4-1.7,0.7-2.8,0.7
		C240,19.2,238.1,17.9,238.1,14.8z M248.1,16.9l1.2-1.7c1.7,1.3,3.5,2,5.4,2c1.9,0,3.2-1,3.2-2.5v-0.1c0-1.6-1.8-2.2-3.9-2.7
		c-2.4-0.7-5.1-1.5-5.1-4.4V7.4c0-2.7,2.2-4.4,5.3-4.4c1.9,0,4,0.7,5.6,1.7l-1,1.7c-1.4-0.9-3.1-1.5-4.6-1.5c-1.8,0-3,1-3,2.2v0.3
		c0,1.5,1.9,2,4,2.7c2.4,0.7,5,1.6,5,4.4v0.1c0,2.9-2.4,4.6-5.5,4.6C252.3,19.2,249.9,18.3,248.1,16.9L248.1,16.9z"/>
</g>
</svg>
