<svg xmlns="http://www.w3.org/2000/svg" width="98.8" height="51.6" viewBox="0 0 98.8 51.6"><g fill="#CFD7DA"><path d="M13.4 33.4c-1.3 1.9-3.1 3.5-5.9 3.5-3.7 0-7.4-2.9-7.4-8v-.1c0-5.1 3.7-8.1 7.4-8.1 2.9 0 4.7 1.6 5.9 3.3v-3h2.3v20.3h-2.3v-7.9zm0-4.6c0-3.6-2.7-6-5.6-6-3 0-5.5 2.2-5.5 6v.1c0 3.7 2.6 6 5.5 6 2.9-.1 5.6-2.6 5.6-6.1zM20.6 30.6v-9.6h2.3v9.1c0 2.9 1.6 4.7 4.3 4.7 2.6 0 4.7-2 4.7-4.9v-8.9h2.3v15.5h-2.3v-2.7c-1.1 1.7-2.6 3-5.3 3-3.8 0-6-2.5-6-6.2zM38.4 28.8c0-4.4 3.4-8.2 8.1-8.2 4.7 0 8.1 3.7 8.1 8v.1c0 4.4-3.5 8.1-8.1 8.1-4.7.1-8.1-3.6-8.1-8zm13.8 0c0-3.4-2.5-6.1-5.8-6.1-3.4 0-5.7 2.7-5.7 6v.1c0 3.3 2.5 6 5.7 6 3.4 0 5.8-2.7 5.8-6zM59.5 32.4v-9.4h-2.2v-2h2.2v-4.7h2.3v4.7h4.9v2h-4.9v9.1c0 1.9 1.1 2.6 2.6 2.6.8 0 1.4-.1 2.3-.5v2c-.8.4-1.7.7-2.8.7-2.5-.1-4.4-1.4-4.4-4.5zM69.4 28.8c0-4.5 3.2-8.1 7.4-8.1 4.6 0 7.2 3.7 7.2 8.2v.8h-12.2c.3 3.4 2.7 5.3 5.5 5.3 2.1 0 3.6-.9 4.9-2.2l1.4 1.3c-1.6 1.7-3.5 2.9-6.4 2.9-4.3-.1-7.8-3.4-7.8-8.2zm12.4-.9c-.2-2.8-1.9-5.3-5-5.3-2.7 0-4.7 2.3-5 5.3h10zM86.9 34.5l1.2-1.7c1.7 1.3 3.5 2 5.4 2 1.9 0 3.2-1 3.2-2.5v-.1c0-1.6-1.8-2.2-3.9-2.7-2.4-.7-5.1-1.5-5.1-4.4v-.1c0-2.7 2.2-4.4 5.3-4.4 1.9 0 4 .7 5.6 1.7l-1.1 1.7c-1.4-.9-3.1-1.5-4.6-1.5-1.8 0-3 1-3 2.3v.2c0 1.5 1.9 2 4 2.7 2.4.7 5 1.7 5 4.4v.1c0 2.9-2.4 4.7-5.5 4.7-2.3-.1-4.8-1-6.5-2.4z"/></g></svg>