<?xml version="1.0" encoding="utf-8"?>
<!-- Generator: Adobe Illustrator 19.1.0, SVG Export Plug-In . SVG Version: 6.00 Build 0)  -->
<!DOCTYPE svg PUBLIC "-//W3C//DTD SVG 1.1//EN" "http://www.w3.org/Graphics/SVG/1.1/DTD/svg11.dtd">
<svg version="1.1" id="Layer_1" xmlns="http://www.w3.org/2000/svg" xmlns:xlink="http://www.w3.org/1999/xlink" x="0px" y="0px"
	 width="98.8px" height="51.6px" viewBox="0 0 98.8 51.6" enable-background="new 0 0 98.8 51.6" xml:space="preserve">
<g>
	<g>
		<path fill="#CFD7DA" d="M13.4,33.4c-1.3,1.9-3.1,3.5-5.9,3.5c-3.7,0-7.4-2.9-7.4-8v-0.1c0-5.1,3.7-8.1,7.4-8.1
			c2.9,0,4.7,1.6,5.9,3.3v-3h2.3v20.3h-2.3V33.4z M13.4,28.8L13.4,28.8c0-3.6-2.7-6-5.6-6c-3,0-5.5,2.2-5.5,6v0.1c0,3.7,2.6,6,5.5,6
			C10.7,34.8,13.4,32.3,13.4,28.8z"/>
		<path fill="#CFD7DA" d="M20.6,30.6V21h2.3v9.1c0,2.9,1.6,4.7,4.3,4.7c2.6,0,4.7-2,4.7-4.9V21h2.3v15.5h-2.3v-2.7
			c-1.1,1.7-2.6,3-5.3,3C22.8,36.8,20.6,34.3,20.6,30.6z"/>
		<path fill="#CFD7DA" d="M38.4,28.8L38.4,28.8c0-4.4,3.4-8.2,8.1-8.2c4.7,0,8.1,3.7,8.1,8v0.1c0,4.4-3.5,8.1-8.1,8.1
			C41.8,36.9,38.4,33.2,38.4,28.8z M52.2,28.8L52.2,28.8c0-3.4-2.5-6.1-5.8-6.1c-3.4,0-5.7,2.7-5.7,6v0.1c0,3.3,2.5,6,5.7,6
			C49.8,34.8,52.2,32.1,52.2,28.8z"/>
		<path fill="#CFD7DA" d="M59.5,32.4V23h-2.2v-2h2.2v-4.7h2.3V21h4.9v2h-4.9v9.1c0,1.9,1.1,2.6,2.6,2.6c0.8,0,1.4-0.1,2.3-0.5v2
			c-0.8,0.4-1.7,0.7-2.8,0.7C61.4,36.8,59.5,35.5,59.5,32.4z"/>
		<path fill="#CFD7DA" d="M69.4,28.8L69.4,28.8c0-4.5,3.2-8.1,7.4-8.1c4.6,0,7.2,3.7,7.2,8.2c0,0.3,0,0.5,0,0.8H71.8
			c0.3,3.4,2.7,5.3,5.5,5.3c2.1,0,3.6-0.9,4.9-2.2l1.4,1.3c-1.6,1.7-3.5,2.9-6.4,2.9C72.9,36.9,69.4,33.6,69.4,28.8z M81.8,27.9
			c-0.2-2.8-1.9-5.3-5-5.3c-2.7,0-4.7,2.3-5,5.3H81.8z"/>
		<path fill="#CFD7DA" d="M86.9,34.5l1.2-1.7c1.7,1.3,3.5,2,5.4,2c1.9,0,3.2-1,3.2-2.5v-0.1c0-1.6-1.8-2.2-3.9-2.7
			c-2.4-0.7-5.1-1.5-5.1-4.4v-0.1c0-2.7,2.2-4.4,5.3-4.4c1.9,0,4,0.7,5.6,1.7l-1.1,1.7c-1.4-0.9-3.1-1.5-4.6-1.5c-1.8,0-3,1-3,2.3
			V25c0,1.5,1.9,2,4,2.7c2.4,0.7,5,1.7,5,4.4v0.1c0,2.9-2.4,4.7-5.5,4.7C91.1,36.8,88.6,35.9,86.9,34.5z"/>
	</g>
</g>
</svg>
