<?xml version="1.0" encoding="utf-8"?>
<!-- Generator: Adobe Illustrator 19.1.0, SVG Export Plug-In . SVG Version: 6.00 Build 0)  -->
<!DOCTYPE svg PUBLIC "-//W3C//DTD SVG 1.1//EN" "http://www.w3.org/Graphics/SVG/1.1/DTD/svg11.dtd">
<svg version="1.1" id="Layer_1" xmlns="http://www.w3.org/2000/svg" xmlns:xlink="http://www.w3.org/1999/xlink" x="0px" y="0px"
	 width="170.3px" height="51.6px" viewBox="0 0 170.3 51.6" enable-background="new 0 0 170.3 51.6" xml:space="preserve">
<g>
	<path fill="#626EB3" d="M27.3,4.7c-6.3-6.3-16.4-6.3-22.6,0c-6.3,6.3-6.3,16.4,0,22.6L29,51.6L51.6,29L27.3,4.7z"/>
	<path fill="#22ABC6" d="M60.3,37.7L51.6,29l1.7-1.7c6.3-6.3,6.3-16.4,0-22.6c-6.3-6.3-16.4-6.3-22.6,0L6.4,29L29,51.6l14-14H60.3z"
		/>
	<g>
		<path fill="#5D5B6A" d="M84.8,33.4c-1.3,1.9-3.1,3.5-5.9,3.5c-3.7,0-7.4-2.9-7.4-8v-0.1c0-5.1,3.7-8.1,7.4-8.1
			c2.9,0,4.7,1.6,5.9,3.3v-3h2.3v20.3h-2.3V33.4z M84.9,28.8L84.9,28.8c0-3.6-2.7-6-5.6-6c-3,0-5.5,2.2-5.5,6v0.1c0,3.7,2.6,6,5.5,6
			C82.2,34.8,84.9,32.3,84.9,28.8z"/>
		<path fill="#5D5B6A" d="M92,30.6V21h2.3v9.1c0,2.9,1.6,4.7,4.3,4.7c2.6,0,4.7-2,4.7-4.9V21h2.3v15.5h-2.3v-2.7
			c-1.1,1.7-2.6,3-5.3,3C94.2,36.8,92,34.3,92,30.6z"/>
		<path fill="#5D5B6A" d="M109.8,28.8L109.8,28.8c0-4.4,3.4-8.2,8.1-8.2c4.7,0,8.1,3.7,8.1,8v0.1c0,4.4-3.5,8.1-8.1,8.1
			C113.2,36.9,109.8,33.2,109.8,28.8z M123.6,28.8L123.6,28.8c0-3.4-2.5-6.1-5.8-6.1c-3.4,0-5.7,2.7-5.7,6v0.1c0,3.3,2.5,6,5.7,6
			C121.3,34.8,123.6,32.1,123.6,28.8z"/>
		<path fill="#5D5B6A" d="M131,32.4V23h-2.2v-2h2.2v-4.7h2.3V21h4.9v2h-4.9v9.1c0,1.9,1.1,2.6,2.6,2.6c0.8,0,1.4-0.1,2.3-0.5v2
			c-0.8,0.4-1.7,0.7-2.8,0.7C132.9,36.8,131,35.5,131,32.4z"/>
		<path fill="#5D5B6A" d="M140.9,28.8L140.9,28.8c0-4.5,3.2-8.1,7.4-8.1c4.6,0,7.2,3.7,7.2,8.2c0,0.3,0,0.5,0,0.8h-12.3
			c0.3,3.4,2.7,5.3,5.5,5.3c2.1,0,3.6-0.9,4.9-2.2L155,34c-1.6,1.7-3.5,2.9-6.4,2.9C144.4,36.9,140.9,33.6,140.9,28.8z M153.2,27.9
			c-0.2-2.8-1.9-5.3-5-5.3c-2.7,0-4.7,2.3-5,5.3H153.2z"/>
		<path fill="#5D5B6A" d="M158.3,34.5l1.2-1.7c1.7,1.3,3.5,2,5.4,2c1.9,0,3.2-1,3.2-2.5v-0.1c0-1.6-1.8-2.2-3.9-2.7
			c-2.4-0.7-5.1-1.5-5.1-4.4v-0.1c0-2.7,2.2-4.4,5.3-4.4c1.9,0,4,0.7,5.6,1.7l-1.1,1.7c-1.4-0.9-3.1-1.5-4.6-1.5c-1.8,0-3,1-3,2.3
			V25c0,1.5,1.9,2,4,2.7c2.4,0.7,5,1.7,5,4.4v0.1c0,2.9-2.4,4.7-5.5,4.7C162.5,36.8,160.1,35.9,158.3,34.5z"/>
	</g>
</g>
</svg>
